<?xml version="1.0" encoding="UTF-8" standalone="no"?>
<!-- Created with Inkscape (http://www.inkscape.org/) -->

<svg
   width="512.0px"
   height="512.0px"
   viewBox="0 0 512.0 512.0"
   version="1.1"
   id="SVGRoot"
   sodipodi:docname="drawing.svg"
   xml:space="preserve"
   inkscape:version="1.2.2 (b0a8486541, 2022-12-01)"
   xmlns:inkscape="http://www.inkscape.org/namespaces/inkscape"
   xmlns:sodipodi="http://sodipodi.sourceforge.net/DTD/sodipodi-0.dtd"
   xmlns="http://www.w3.org/2000/svg"
   xmlns:svg="http://www.w3.org/2000/svg"><sodipodi:namedview
     id="namedview1780"
     pagecolor="#ffffff"
     bordercolor="#666666"
     borderopacity="1.0"
     inkscape:showpageshadow="2"
     inkscape:pageopacity="0.0"
     inkscape:pagecheckerboard="0"
     inkscape:deskcolor="#d1d1d1"
     inkscape:document-units="px"
     showgrid="true"
     inkscape:zoom="0.99402667"
     inkscape:cx="261.5624"
     inkscape:cy="358.64229"
     inkscape:window-width="1366"
     inkscape:window-height="731"
     inkscape:window-x="0"
     inkscape:window-y="0"
     inkscape:window-maximized="1"
     inkscape:current-layer="layer1"><inkscape:grid
       type="xygrid"
       id="grid2266" /></sodipodi:namedview><defs
     id="defs1775" /><g
     inkscape:label="Layer 1"
     inkscape:groupmode="layer"
     id="layer1"><g
       id="g9793"
       transform="translate(-540.00689,58.945853)"><path
         style="fill:#009257;fill-opacity:1;stroke:none;stroke-width:1px;stroke-linecap:butt;stroke-linejoin:miter;stroke-opacity:1"
         d="m 717.19428,134.55979 170.71292,-0.59187 c 16.52617,5.059 15.97515,20.57868 14.11737,36.89881 l 24.87984,69.90201 0.65954,49.97675 c -0.95841,6.25591 -8.06631,16.61226 -20.10832,15.18439 l -201.61245,-0.3918 c -7.82588,-1.18291 -17.34292,-3.10591 -20.46259,-17.24066 l -0.33051,-46.0977 20.69793,-68.83456 c -1.54843,-7.61289 -6.22817,-31.48517 11.44627,-38.80537 z"
         id="path7908"
         sodipodi:nodetypes="ccccccccccc" /><path
         style="fill:none;fill-opacity:1;stroke:#000000;stroke-width:7.559;stroke-linecap:butt;stroke-linejoin:miter;stroke-dasharray:none;stroke-opacity:1"
         d="m 717.19437,134.56331 170.71292,-0.59187 c 16.52617,5.059 15.97515,20.57868 14.11737,36.89881 l 24.87984,69.90201 0.65954,49.97675 c -0.95841,6.25591 -8.06631,16.61226 -20.10832,15.18439 l -201.61245,-0.3918 c -7.82588,-1.18291 -17.34292,-3.10591 -20.46259,-17.24066 l -0.33051,-46.0977 20.69793,-68.83456 c -1.54843,-7.61289 -6.22817,-31.48517 11.44627,-38.80537 z"
         id="path9789"
         sodipodi:nodetypes="ccccccccccc" /></g><g
       id="g7906"
       transform="translate(-221.02617,66.683949)"><g
         id="g7372"
         transform="translate(240.69557,27.205476)"><path
           style="fill:#f9b418;fill-opacity:1;stroke:none;stroke-width:1px;stroke-linecap:butt;stroke-linejoin:miter;stroke-opacity:1"
           d="m 158.61397,135.27195 -0.71098,-74.401734 c -1.37845,-4.20351 -4.61722,-8.97839 -3.44699,-12.39913 4.69277,-3.01789 10.81407,-0.24586 14.95231,3.60417 2.55683,-1.5902 3.6003,-3.99002 7.6832,-4.7638 3.40472,-0.96294 8.23963,3.19533 12.40115,4.94233 2.27081,-1.69551 3.47483,-4.78515 7.0889,-4.72524 3.32366,-1.52473 8.38948,2.62498 12.72243,4.38762 6.76416,-9.70071 23.40266,-3.56805 21.82984,2.69204 l 0.38168,81.029314 z"
           id="path6097"
           sodipodi:nodetypes="ccccccccccc" /><path
           style="fill:none;fill-opacity:1;stroke:#000000;stroke-width:7.559;stroke-linecap:butt;stroke-linejoin:miter;stroke-dasharray:none;stroke-opacity:1"
           d="m 158.61607,135.26717 -0.71098,-74.401724 c -1.37845,-4.20352 -4.61722,-8.97839 -3.44699,-12.39914 4.69277,-3.01788 10.81407,-0.24585 14.95231,3.60417 2.55683,-1.5902 3.6003,-3.99001 7.6832,-4.76379 3.40472,-0.96295 8.23963,3.19532 12.40115,4.94233 2.27081,-1.69551 3.47483,-4.78516 7.0889,-4.72524 3.32366,-1.52474 8.38948,2.62497 12.72243,4.38762 6.76416,-9.70072 23.40266,-3.56805 21.82984,2.69204 l 0.38168,81.029304 z"
           id="path6195"
           sodipodi:nodetypes="ccccccccccc" /></g><rect
         style="fill:#0a0000;fill-opacity:1;stroke:none;stroke-width:2.19818;stroke-dasharray:none;stroke-opacity:1"
         id="rect7426"
         width="39.783138"
         height="7.3830967"
         x="417.27695"
         y="100.02332"
         ry="3.6915483" /><rect
         style="fill:#0a0000;fill-opacity:1;stroke:none;stroke-width:2.19818;stroke-dasharray:none;stroke-opacity:1"
         id="rect7896"
         width="39.783138"
         height="7.3830967"
         x="417.86536"
         y="115.12505"
         ry="3.6915483" /><rect
         style="fill:#0a0000;fill-opacity:1;stroke:none;stroke-width:1.90459;stroke-dasharray:none;stroke-opacity:1"
         id="rect7898"
         width="29.865835"
         height="7.3830967"
         x="416.96017"
         y="129.87041"
         ry="3.6915483" /></g><g
       id="g6041"
       transform="translate(248.38079,-22.302507)"><rect
         style="fill:#ea2c23;fill-opacity:1;stroke-width:18.762"
         id="rect4310"
         width="91.108673"
         height="47.809013"
         x="28.973299"
         y="152.72128"
         ry="11.457671" /><rect
         style="fill:none;fill-opacity:1;stroke:#000000;stroke-width:7.559;stroke-dasharray:none;stroke-opacity:1"
         id="rect4312"
         width="91.108673"
         height="47.809013"
         x="28.973299"
         y="152.72128"
         ry="11.457671" /></g><rect
       style="fill:#000000;fill-opacity:1;stroke:none;stroke-width:10.3957;stroke-dasharray:none;stroke-opacity:1"
       id="rect9847"
       width="98.976868"
       height="8.252841"
       x="162.9176"
       y="227.29491"
       ry="4.1264205" /><rect
       style="fill:#000000;fill-opacity:1;stroke:none;stroke-width:16.3434;stroke-dasharray:none;stroke-opacity:1"
       id="rect9849"
       width="244.62988"
       height="8.252841"
       x="143.15491"
       y="299.71338"
       ry="4.1264205" /><rect
       style="fill:#000000;fill-opacity:1;stroke:none;stroke-width:6.79759;stroke-dasharray:none;stroke-opacity:1"
       id="rect9851"
       width="42.318733"
       height="8.252841"
       x="240.76019"
       y="331.35089"
       ry="4.1264205" /><rect
       style="fill:#000000;fill-opacity:1;stroke:none;stroke-width:7.87745;stroke-dasharray:none;stroke-opacity:1"
       id="rect9853"
       width="19.905462"
       height="11.137166"
       x="309.86615"
       y="180.14938"
       ry="0" /><path
       style="fill:#000000;fill-opacity:1;stroke:none;stroke-width:1px;stroke-linecap:butt;stroke-linejoin:miter;stroke-opacity:1"
       d="m 274.59492,234.63954 0.96527,8.59948 c 1.0383,2.64033 2.46726,3.46874 3.93086,4.1365 l 14.87005,-0.47134 c 1.66962,-0.70193 2.65575,-1.84098 2.84543,-3.4894 l -1.20736,-7.98504 c -0.90068,-1.54114 -1.49147,-3.00805 -3.34074,-3.34073 l -15.24622,0.1886 c -1.04354,0.20082 -2.12253,0.20256 -2.81729,2.36193 z"
       id="path9855"
       sodipodi:nodetypes="ccccccccc" /><path
       style="fill:#000000;fill-opacity:1;stroke:none;stroke-width:1px;stroke-linecap:butt;stroke-linejoin:miter;stroke-opacity:1"
       d="m 304.65179,235.01745 0.96527,8.59948 c 1.0383,2.64033 2.46726,3.46874 3.93086,4.1365 l 14.87005,-0.47134 c 1.66962,-0.70193 2.65575,-1.84098 2.84543,-3.4894 l -1.20736,-7.98504 c -0.90068,-1.54114 -1.49147,-3.00805 -3.34074,-3.34073 l -15.24622,0.1886 c -1.04354,0.20082 -2.12253,0.20256 -2.81729,2.36193 z"
       id="path9857"
       sodipodi:nodetypes="ccccccccc" /><path
       style="fill:#000000;fill-opacity:1;stroke:none;stroke-width:1px;stroke-linecap:butt;stroke-linejoin:miter;stroke-opacity:1"
       d="m 332.83995,234.54715 0.96527,8.59948 c 1.0383,2.64033 2.46726,3.46874 3.93086,4.1365 l 14.87005,-0.47134 c 1.66962,-0.70193 2.65575,-1.84098 2.84543,-3.4894 l -1.20736,-7.98504 c -0.90068,-1.54114 -1.49147,-3.00805 -3.34074,-3.34073 l -15.24622,0.1886 c -1.04354,0.20082 -2.12253,0.20256 -2.81729,2.36193 z"
       id="path9859"
       sodipodi:nodetypes="ccccccccc" /><path
       style="fill:#000000;fill-opacity:1;stroke:none;stroke-width:1px;stroke-linecap:butt;stroke-linejoin:miter;stroke-opacity:1"
       d="m 275.58067,257.60022 0.96527,8.59948 c 1.0383,2.64033 2.46726,3.46874 3.93086,4.1365 l 14.87005,-0.47134 c 1.66962,-0.70193 2.65575,-1.84098 2.84543,-3.4894 l -1.20736,-7.98504 c -0.90068,-1.54114 -1.49147,-3.00805 -3.34074,-3.34073 l -15.24622,0.1886 c -1.04354,0.20082 -2.12253,0.20256 -2.81729,2.36193 z"
       id="path9861"
       sodipodi:nodetypes="ccccccccc" /><path
       style="fill:#000000;fill-opacity:1;stroke:none;stroke-width:1px;stroke-linecap:butt;stroke-linejoin:miter;stroke-opacity:1"
       d="m 307.58543,257.28622 0.96527,8.59948 c 1.0383,2.64033 2.46726,3.46874 3.93086,4.1365 l 14.87005,-0.47134 c 1.66962,-0.70193 2.65575,-1.84098 2.84543,-3.4894 l -1.20736,-7.98504 c -0.90068,-1.54114 -1.49147,-3.00805 -3.34074,-3.34073 l -15.24622,0.1886 c -1.04354,0.20082 -2.12253,0.20256 -2.81729,2.36193 z"
       id="path9863"
       sodipodi:nodetypes="ccccccccc" /><path
       style="fill:#000000;fill-opacity:1;stroke:none;stroke-width:1px;stroke-linecap:butt;stroke-linejoin:miter;stroke-opacity:1"
       d="m 336.47453,257.57104 0.96527,8.59948 c 1.0383,2.64033 2.46726,3.46874 3.93086,4.1365 l 14.87005,-0.47134 c 1.66962,-0.70193 2.65575,-1.84098 2.84543,-3.4894 l -1.20736,-7.98504 c -0.90068,-1.54114 -1.49147,-3.00805 -3.34074,-3.34073 l -15.24622,0.1886 c -1.04354,0.20082 -2.12253,0.20256 -2.81729,2.36193 z"
       id="path9865"
       sodipodi:nodetypes="ccccccccc" /><path
       style="fill:#000000;fill-opacity:1;stroke:none;stroke-width:1px;stroke-linecap:butt;stroke-linejoin:miter;stroke-opacity:1"
       d="m 278.40109,281.90719 0.96527,8.59948 c 1.0383,2.64033 2.46726,3.46874 3.93086,4.1365 l 14.87005,-0.47134 c 1.66962,-0.70193 2.65575,-1.84098 2.84543,-3.4894 l -1.20736,-7.98504 c -0.90068,-1.54114 -1.49147,-3.00805 -3.34074,-3.34073 l -15.24622,0.1886 c -1.04354,0.20082 -2.12253,0.20256 -2.81729,2.36193 z"
       id="path9867"
       sodipodi:nodetypes="ccccccccc" /><path
       style="fill:#000000;fill-opacity:1;stroke:none;stroke-width:1px;stroke-linecap:butt;stroke-linejoin:miter;stroke-opacity:1"
       d="m 311.62294,281.87732 0.96527,8.59948 c 1.0383,2.64033 2.46726,3.46874 3.93086,4.1365 l 14.87005,-0.47134 c 1.66962,-0.70193 2.65575,-1.84098 2.84543,-3.4894 l -1.20736,-7.98504 c -0.90068,-1.54114 -1.49147,-3.00805 -3.34074,-3.34073 l -15.24622,0.1886 c -1.04354,0.20082 -2.12253,0.20256 -2.81729,2.36193 z"
       id="path9869"
       sodipodi:nodetypes="ccccccccc" /><text
       xml:space="preserve"
       style="font-style:normal;font-weight:normal;font-size:40px;line-height:1.25;font-family:sans-serif;fill:#000000;fill-opacity:1;stroke:none"
       x="172.60941"
       y="417.52148"
       id="text9925"><tspan
         sodipodi:role="line"
         id="tspan9923"
         x="172.60941"
         y="417.52148"
         style="font-style:normal;font-variant:normal;font-weight:bold;font-stretch:normal;font-family:sans-serif;-inkscape-font-specification:'sans-serif Bold'">Yegna POS</tspan></text></g></svg>
