<?xml version="1.0" encoding="UTF-8" standalone="no"?>
<!-- Created with Inkscape (http://www.inkscape.org/) -->

<svg
   width="512.0px"
   height="512.0px"
   viewBox="0 0 512.0 512.0"
   version="1.1"
   id="SVGRoot"
   xmlns="http://www.w3.org/2000/svg"
   xmlns:svg="http://www.w3.org/2000/svg">
  <defs
     id="defs132" />
  <g
     id="layer1">
    <rect
       style="fill:#367d6b;stroke-width:44.0067"
       id="rect369"
       width="512"
       height="512"
       x="0"
       y="0"
       ry="66.441063" />
    <g
       id="layer1-3"
       transform="matrix(10.372572,0,0,10.372572,-1683.962,3855.6262)">
      <path
         d="m 186.85189,-334.18149 q -2.57209,0 -4.31618,-0.65183 -1.72647,-0.65183 -2.78349,-1.88503 -1.05702,-1.25081 -1.51506,-3.06536 -0.45805,-1.83217 -0.45805,-4.15762 v -15.94342 h 5.56699 v 15.74963 q 0,1.74409 0.14093,3.01251 0.14094,1.26843 0.54613,2.09643 0.40519,0.828 1.14511,1.23319 0.73992,0.38758 1.93788,0.38758 1.16272,0 1.8674,-0.38758 0.70468,-0.38757 1.07464,-1.18034 0.38758,-0.79276 0.5109,-2.00834 0.14093,-1.23319 0.14093,-2.90681 v -15.99627 h 5.56699 v 15.53823 q 0,2.43115 -0.47566,4.33379 -0.47566,1.88502 -1.58554,3.18868 -1.09225,1.28605 -2.90681,1.97311 -1.79694,0.66945 -4.45711,0.66945 z"
         id="text1"
         style="font-weight:bold;font-size:36.0797px;-inkscape-font-specification:'sans-serif Bold';fill:#ffffff;stroke-width:6.76493"
         aria-label="ሀ" />
    </g>
  </g>
</svg>
