<?xml version="1.0" encoding="UTF-8" standalone="no"?>
<!-- Created with Inkscape (http://www.inkscape.org/) -->

<svg
   width="512.0px"
   height="512.0px"
   viewBox="0 0 512.0 512.0"
   version="1.1"
   id="SVGRoot"
   xml:space="preserve"
   xmlns="http://www.w3.org/2000/svg"
   xmlns:svg="http://www.w3.org/2000/svg"><defs
     id="defs132" /><g
     id="layer1"><rect
       style="fill:#367d6b;stroke-width:44.0067"
       id="rect369"
       width="512"
       height="512"
       x="0"
       y="0"
       ry="66.441063" /><g
       id="layer1-3"
       transform="matrix(10.372572,0,0,10.372572,-1683.962,3855.6262)"><g
         id="g13"
         transform="matrix(0.3937527,0,0,0.3937527,130.3943,-186.26006)"><path
           style="fill:#f9f9f9;fill-opacity:1;stroke-width:0.190632"
           d="m 132.67581,-429.57315 c -0.75025,-0.52551 0.15465,-1.64581 2.301,-2.84871 1.13909,-0.63839 1.73059,-1.08011 1.59908,-1.19415 -0.0287,-0.0249 -0.62407,-0.33753 -1.32306,-0.69477 -1.48064,-0.75673 -2.47404,-1.57591 -2.84808,-2.34857 -0.61372,-1.26778 -0.1493,-3.3423 1.2053,-5.38393 1.41981,-2.13992 4.44523,-4.85336 6.59921,-5.9187 1.43369,-0.70908 1.87522,-0.79087 4.27918,-0.79261 2.50212,-0.003 2.62229,0.0337 3.26366,0.96321 0.26239,0.38029 0.29037,0.53393 0.22934,1.25921 -0.0761,0.90434 -0.49744,2.22239 -0.93659,2.92973 -0.45968,0.74041 -1.87705,2.02668 -2.23323,2.02668 -0.18521,0 -0.64271,-0.26411 -1.12302,-0.64828 -0.95981,-0.76772 -1.35714,-0.98592 -2.20846,-1.21277 -1.57423,-0.41947 -3.47805,-0.0412 -4.44226,0.88267 -1.04038,0.99687 -0.89794,1.7208 0.52469,2.66655 0.77714,0.51666 2.23496,1.18674 3.28213,1.50866 2.1977,0.67561 6.75474,1.05468 9.02323,0.75059 2.73575,-0.36673 4.22179,-0.48842 4.7609,-0.38983 0.53347,0.0975 0.89451,0.38216 0.89451,0.70519 0,0.24368 -1.18594,1.72559 -1.98474,2.48007 -1.08891,1.02847 -1.5261,1.18849 -4.30611,1.57613 -3.17931,0.44328 -5.09191,0.83576 -7.18046,1.47346 -0.94363,0.28813 -1.91585,0.58148 -2.16049,0.65188 -0.24464,0.0704 -1.66613,0.49435 -3.15886,0.94208 -2.79863,0.83941 -3.57075,0.95668 -4.05687,0.61621 z"
           id="path539" /><path
           style="fill:#f9f9f9;fill-opacity:1;stroke-width:0.190632"
           d="m 145.29236,-368.29101 c -0.12677,-0.30342 -0.19941,-1.2827 -0.25214,-3.3996 -0.1177,-4.72476 -0.34501,-7.20371 -1.08841,-11.86956 -0.0668,-0.41939 -0.23646,-1.56319 -0.37697,-2.54176 -0.14051,-0.97858 -0.31305,-2.09377 -0.38342,-2.47821 -0.16349,-0.89322 -0.45243,-2.74435 -0.69429,-4.44807 -0.21403,-1.50771 -0.22193,-1.56191 -0.58346,-4.00327 -0.14491,-0.97858 -0.31352,-2.12237 -0.3747,-2.54176 -0.0612,-0.41939 -0.16683,-1.10566 -0.2348,-1.52505 -0.068,-0.41939 -0.18313,-1.16285 -0.25594,-1.65214 -0.0728,-0.48929 -0.21509,-1.37573 -0.31619,-1.96986 -0.1011,-0.59414 -0.22216,-1.39479 -0.26903,-1.77923 -0.0469,-0.38444 -0.21994,-1.38526 -0.3846,-2.22404 -0.71544,-3.6446 -0.93391,-5.52677 -0.81131,-6.98982 0.07,-0.83548 0.15795,-1.04044 1.445,-3.36782 2.09244,-3.78378 2.56666,-4.44807 3.1753,-4.44807 0.49477,0 0.75423,1.11839 1.14983,4.95641 0.10447,1.01352 0.24758,2.21451 0.31803,2.66884 0.0705,0.45434 0.2458,1.85549 0.38968,3.11365 0.14388,1.25817 0.31354,2.48775 0.37703,2.73239 0.0635,0.24464 0.17444,0.95951 0.24657,1.5886 0.0721,0.62908 0.19049,1.6299 0.26303,2.22404 0.0725,0.59413 0.1843,1.53776 0.24836,2.09694 0.0641,0.55919 0.17499,1.44563 0.2465,1.96987 1.44707,10.60977 1.56576,12.06899 1.58153,19.44443 0.0129,6.05241 -0.0546,7.15709 -0.57918,9.46804 -0.29947,1.31935 -0.91318,3.21334 -1.26814,3.91367 -0.27068,0.53405 -1.08565,1.48756 -1.27142,1.48756 -0.0653,0 -0.19892,-0.19178 -0.29686,-0.42618 z"
           id="path541" /></g></g></g></svg>
